<svg id="Layer_1" xmlns="http://www.w3.org/2000/svg" width="185" height="188" viewBox="0 0 185 188"><g><g fill="#4E4E4E"><path d="M115.912 17.967c0 2.676-.73 4.738-2.193 6.186-1.463 1.448-3.52 2.17-6.167 2.17h-5.148V10.29h5.508c2.554 0 4.525.658 5.916 1.974 1.387 1.316 2.082 3.217 2.082 5.703zm-4.462.154c0-1.468-.29-2.558-.866-3.267s-1.453-1.064-2.628-1.064h-1.25v8.98h.957c1.306 0 2.264-.38 2.874-1.145.61-.764.913-1.932.913-3.504zM123.13 26.544c-2.054 0-3.647-.55-4.784-1.65-1.136-1.1-1.703-2.667-1.703-4.7 0-2.1.525-3.71 1.578-4.832 1.054-1.122 2.556-1.684 4.507-1.684 1.856 0 3.293.488 4.305 1.464s1.52 2.382 1.52 4.217v1.907h-7.61c.03.695.282 1.24.76 1.634.475.396 1.12.593 1.94.593.748 0 1.437-.07 2.063-.214.63-.144 1.31-.387 2.04-.73v3.082c-.667.344-1.355.58-2.067.713-.713.133-1.56.2-2.55.2zm-.25-9.948c-.5 0-.92.16-1.257.477-.338.318-.537.817-.594 1.497h3.655c-.015-.6-.185-1.078-.506-1.437-.323-.36-.756-.537-1.3-.537zM132.852 26.325L128.15 13.9h4.44l2.09 7.347c.008.037.02.1.043.187.022.088.043.192.065.313.02.12.04.25.06.384.02.137.027.263.027.38h.076c0-.38.065-.794.196-1.24l2.188-7.37h4.43l-4.7 12.426h-4.212zM146.38 26.325h-4.233V10.29h9.404v3.477h-5.17v3.06h4.77v3.477h-4.77v6.02zM158.527 26.544c-2.053 0-3.646-.55-4.782-1.65s-1.703-2.667-1.703-4.7c0-2.1.524-3.71 1.578-4.832 1.052-1.122 2.554-1.684 4.506-1.684 1.856 0 3.292.488 4.306 1.464 1.012.976 1.52 2.382 1.52 4.217v1.907h-7.61c.03.695.282 1.24.76 1.634.474.396 1.12.593 1.94.593.747 0 1.436-.07 2.062-.214.63-.144 1.31-.387 2.04-.73v3.082c-.667.344-1.355.58-2.066.713-.714.133-1.562.2-2.55.2zm-.25-9.948c-.5 0-.92.16-1.256.477-.337.318-.536.817-.594 1.497h3.657c-.016-.6-.184-1.078-.506-1.437-.32-.358-.755-.537-1.3-.537zM174.54 22.508c0 1.33-.45 2.336-1.35 3.016-.9.68-2.19 1.02-3.874 1.02-.914 0-1.71-.05-2.385-.148-.674-.1-1.362-.28-2.065-.543V22.42c.66.292 1.384.534 2.17.724s1.49.285 2.107.285c.92 0 1.38-.213 1.38-.637 0-.22-.128-.415-.384-.586-.26-.172-1.008-.506-2.248-1.004-1.133-.468-1.924-1-2.373-1.596s-.676-1.35-.676-2.265c0-1.155.443-2.055 1.33-2.698.884-.644 2.136-.965 3.754-.965.813 0 1.576.09 2.29.268.717.18 1.458.44 2.23.784l-1.155 2.764c-.565-.256-1.165-.473-1.797-.652-.632-.18-1.146-.27-1.546-.27-.696 0-1.045.173-1.045.517 0 .213.12.394.365.544.242.15.944.455 2.105.916.863.358 1.507.71 1.932 1.053.426.344.736.748.937 1.212.2.463.3 1.028.3 1.693zM181.605 23.155c.572 0 1.26-.143 2.058-.428v3.126c-.573.25-1.12.426-1.64.532-.52.105-1.125.16-1.82.16-1.432 0-2.46-.354-3.094-1.06-.632-.705-.946-1.79-.946-3.25V17.11h-1.49v-1.744l1.893-1.35 1.1-2.61h2.787v2.49h3.025v3.214h-3.026v4.837c-.002.803.383 1.205 1.15 1.205z"/></g><g fill="#4E4E4E"><path d="M55.57 17.313h6.923v8.644c-1.88.644-3.945.965-6.198.965-2.472 0-4.382-.716-5.73-2.15-1.35-1.433-2.025-3.477-2.025-6.132 0-2.59.74-4.603 2.216-6.044 1.477-1.44 3.547-2.16 6.208-2.16 1.01 0 1.962.094 2.858.284.896.19 1.676.432 2.342.724l-1.37 3.4c-1.157-.57-2.425-.854-3.808-.854-1.265 0-2.243.412-2.934 1.234-.69.823-1.037 2-1.037 3.527 0 1.5.313 2.643.938 3.43.625.785 1.526 1.178 2.704 1.178.644 0 1.236-.062 1.777-.187v-2.51H55.57v-3.347zM78.026 18.344c0 2.676-.737 4.74-2.21 6.188-1.473 1.448-3.545 2.172-6.214 2.172h-5.188V10.666h5.55c2.575 0 4.562.658 5.962 1.975 1.4 1.318 2.1 3.218 2.1 5.704zm-4.497.154c0-1.47-.292-2.56-.873-3.27-.582-.708-1.464-1.063-2.65-1.063h-1.26v8.983h.964c1.317 0 2.283-.382 2.897-1.146.614-.764.922-1.932.922-3.504zM85.99 17.313h6.923v8.644c-1.88.644-3.945.965-6.198.965-2.472 0-4.382-.716-5.73-2.15-1.35-1.433-2.025-3.477-2.025-6.132 0-2.59.74-4.603 2.216-6.044 1.477-1.44 3.547-2.16 6.208-2.16 1.01 0 1.962.094 2.858.284.896.19 1.676.432 2.342.724l-1.37 3.4c-1.157-.57-2.425-.854-3.808-.854-1.265 0-2.243.412-2.934 1.234-.69.823-1.037 2-1.037 3.527 0 1.5.313 2.643.938 3.43.625.785 1.526 1.178 2.704 1.178.644 0 1.236-.062 1.777-.187v-2.51H85.99v-3.347z"/></g><radialGradient id="SVGID_1_" cx="-119.14" cy="214.853" r="20.113" gradientTransform="matrix(.498 0 0 -.498 76.955 156.83)" gradientUnits="userSpaceOnUse"><stop offset="0" stop-color="#FFCF4F"/><stop offset="1" stop-color="#F4C236"/></radialGradient><path fill="url(#SVGID_1_)" d="M8.91 61h6.79c1.608 0 3.605-1.128 4.433-2.51l5.72-9.52c.677-1.397.653-3.427-.12-4.714l-3.377-5.592L8.91 61z"/><radialGradient id="SVGID_2_" cx="-131.191" cy="225.068" r="27.657" gradientTransform="matrix(.498 0 0 -.498 76.955 156.83)" gradientUnits="userSpaceOnUse"><stop offset="0" stop-color="#08A960"/><stop offset="1" stop-color="#07914B"/></radialGradient><path fill="url(#SVGID_2_)" d="M16.21 33.514L1.107 58.764C.524 60.01 1.13 61 2.628 61H8.91l13.446-22.335-6.146-10.173c.83 1.378.83 3.638 0 5.022"/><radialGradient id="SVGID_3_" cx="-121.74" cy="264.75" r="40.538" gradientTransform="matrix(.498 0 0 -.498 76.955 156.83)" gradientUnits="userSpaceOnUse"><stop offset="0" stop-color="#567FC0"/><stop offset="1" stop-color="#557FC0"/></radialGradient><path fill="url(#SVGID_3_)" d="M2.63 1C1.014 1 .374 2.133 1.204 3.51l24.53 40.746c.77 1.288.794 3.317.118 4.713l5.963-9.926L8.914 1H2.63z"/><radialGradient id="SVGID_4_" cx="-109.676" cy="274.713" r="33.058" gradientTransform="matrix(.498 0 0 -.498 76.955 156.83)" gradientUnits="userSpaceOnUse"><stop offset="0" stop-color="#E14C40"/><stop offset="1" stop-color="#CD392D"/></radialGradient><path fill="url(#SVGID_4_)" d="M8.914 1l22.903 38.045 3.32-5.53c.83-1.385.83-3.645 0-5.023L20.134 3.512C19.305 2.13 17.308 1 15.7 1H8.915z"/></g><g><g fill="#4E4E4E"><path d="M115.912 80.967c0 2.677-.73 4.738-2.193 6.187-1.463 1.447-3.52 2.17-6.167 2.17h-5.148V73.29h5.508c2.554 0 4.525.657 5.916 1.974 1.388 1.317 2.082 3.217 2.082 5.703zm-4.462.153c0-1.47-.29-2.56-.866-3.268-.577-.71-1.453-1.064-2.628-1.064h-1.25v8.982h.957c1.306 0 2.264-.382 2.874-1.146.608-.764.913-1.932.913-3.504zM123.13 89.544c-2.054 0-3.647-.55-4.784-1.65-1.136-1.1-1.703-2.667-1.703-4.7 0-2.1.525-3.71 1.578-4.83 1.054-1.123 2.556-1.685 4.507-1.685 1.856 0 3.293.487 4.305 1.463 1.012.977 1.52 2.382 1.52 4.218v1.91h-7.61c.03.693.282 1.238.76 1.633.475.396 1.12.593 1.94.593.748 0 1.437-.07 2.063-.214.63-.143 1.31-.386 2.04-.73v3.083c-.667.344-1.355.58-2.067.713-.713.13-1.56.196-2.55.196zm-.25-9.948c-.5 0-.92.16-1.257.478-.338.318-.537.817-.594 1.497h3.655c-.015-.6-.185-1.077-.506-1.436-.323-.36-.756-.538-1.3-.538zM132.852 89.324l-4.703-12.426h4.44l2.09 7.348c.008.037.02.1.043.187.022.088.043.192.065.313.02.12.04.25.06.384.02.136.027.262.027.38h.076c0-.38.065-.794.196-1.24l2.188-7.37h4.43l-4.7 12.426h-4.212v-.002zM146.38 89.324h-4.233V73.29h9.404v3.477h-5.17v3.06h4.77v3.477h-4.77v6.02zM158.527 89.544c-2.053 0-3.646-.55-4.782-1.65s-1.703-2.667-1.703-4.7c0-2.1.524-3.71 1.578-4.83 1.052-1.123 2.554-1.685 4.506-1.685 1.856 0 3.292.487 4.306 1.463 1.012.977 1.52 2.382 1.52 4.218v1.91h-7.61c.03.693.282 1.238.76 1.633.474.396 1.12.593 1.94.593.747 0 1.436-.07 2.062-.214.63-.143 1.31-.386 2.04-.73v3.083c-.667.344-1.355.58-2.066.713-.714.13-1.562.196-2.55.196zm-.25-9.948c-.5 0-.92.16-1.256.478-.337.318-.536.817-.594 1.497h3.657c-.016-.6-.184-1.077-.506-1.436-.32-.36-.755-.538-1.3-.538zM174.54 85.508c0 1.33-.45 2.336-1.35 3.016-.9.68-2.19 1.02-3.874 1.02-.914 0-1.71-.05-2.385-.147-.674-.098-1.362-.28-2.065-.543V85.42c.66.293 1.384.534 2.17.724s1.49.285 2.107.285c.92 0 1.38-.213 1.38-.637 0-.22-.128-.415-.384-.587-.26-.172-1.008-.506-2.248-1.004-1.133-.468-1.924-1-2.373-1.596-.45-.596-.676-1.35-.676-2.265 0-1.154.443-2.054 1.33-2.697.884-.644 2.136-.965 3.754-.965.813 0 1.576.09 2.29.27.717.18 1.458.44 2.23.784l-1.155 2.764c-.565-.256-1.165-.473-1.797-.652-.632-.18-1.146-.27-1.546-.27-.696 0-1.045.173-1.045.517 0 .213.12.394.365.544.242.15.944.455 2.105.915.863.357 1.507.71 1.932 1.053.426.344.736.747.937 1.212.2.462.3 1.028.3 1.693zM181.605 86.154c.572 0 1.26-.143 2.058-.428v3.126c-.573.25-1.12.427-1.64.532-.52.105-1.125.16-1.82.16-1.432 0-2.46-.354-3.094-1.06-.632-.705-.946-1.79-.946-3.252V80.11h-1.49v-1.743l1.893-1.35 1.1-2.61h2.787v2.49h3.025v3.213h-3.026v4.837c-.002.806.383 1.207 1.15 1.207z"/></g><g fill="#4E4E4E"><path d="M55.57 80.313h6.923v8.644c-1.88.644-3.945.966-6.198.966-2.472 0-4.382-.717-5.73-2.15s-2.025-3.477-2.025-6.132c0-2.588.74-4.602 2.216-6.043 1.477-1.44 3.547-2.16 6.208-2.16 1.01 0 1.962.095 2.858.284.896.19 1.676.433 2.342.726l-1.37 3.4c-1.157-.57-2.425-.855-3.808-.855-1.265 0-2.243.412-2.934 1.234-.69.823-1.037 2-1.037 3.527 0 1.5.313 2.643.938 3.43.625.785 1.526 1.178 2.704 1.178.644 0 1.236-.062 1.777-.187v-2.51H55.57v-3.347zM78.026 81.344c0 2.677-.737 4.74-2.21 6.188-1.474 1.448-3.545 2.172-6.214 2.172h-5.188v-16.04h5.55c2.575 0 4.562.66 5.962 1.976 1.4 1.317 2.1 3.217 2.1 5.704zm-4.497.153c0-1.47-.292-2.56-.873-3.27-.58-.708-1.464-1.062-2.65-1.062h-1.26v8.983h.964c1.317 0 2.283-.382 2.897-1.146.615-.764.922-1.933.922-3.505zM85.99 80.313h6.923v8.644c-1.88.644-3.945.966-6.198.966-2.472 0-4.382-.717-5.73-2.15s-2.025-3.477-2.025-6.132c0-2.588.74-4.602 2.216-6.043 1.477-1.44 3.547-2.16 6.208-2.16 1.01 0 1.962.095 2.858.284.896.19 1.676.433 2.342.726l-1.37 3.4c-1.157-.57-2.425-.855-3.808-.855-1.265 0-2.243.412-2.934 1.234-.69.823-1.037 2-1.037 3.527 0 1.5.313 2.643.938 3.43.625.785 1.526 1.178 2.704 1.178.644 0 1.236-.062 1.777-.187v-2.51H85.99v-3.347z"/></g><radialGradient id="SVGID_5_" cx="-119.14" cy="88.349" r="20.113" gradientTransform="matrix(.498 0 0 -.498 76.955 156.83)" gradientUnits="userSpaceOnUse"><stop offset="0" stop-color="#CCC"/><stop offset="1" stop-color="#C0C0C0"/></radialGradient><path fill="url(#SVGID_5_)" d="M8.91 124h6.79c1.608 0 3.605-1.128 4.433-2.51l5.72-9.52c.677-1.397.653-3.427-.12-4.714l-3.377-5.592L8.91 124z"/><radialGradient id="SVGID_6_" cx="-131.191" cy="98.561" r="27.657" gradientTransform="matrix(.498 0 0 -.498 76.955 156.83)" gradientUnits="userSpaceOnUse"><stop offset="0" stop-color="#A0A0A0"/><stop offset="1" stop-color="#7B7B7B"/></radialGradient><path fill="url(#SVGID_6_)" d="M16.21 96.514l-15.102 25.25C.524 123.01 1.13 124 2.628 124H8.91l13.446-22.335-6.146-10.173c.83 1.378.83 3.638 0 5.022"/><radialGradient id="SVGID_7_" cx="-121.74" cy="138.243" r="40.538" gradientTransform="matrix(.498 0 0 -.498 76.955 156.83)" gradientUnits="userSpaceOnUse"><stop offset="0" stop-color="#848484"/><stop offset="1" stop-color="#838383"/></radialGradient><path fill="url(#SVGID_7_)" d="M2.63 64c-1.614 0-2.255 1.133-1.425 2.51l24.53 40.746c.77 1.288.794 3.317.118 4.713l5.963-9.926L8.914 64H2.63z"/><radialGradient id="SVGID_8_" cx="-109.676" cy="148.207" r="33.057" gradientTransform="matrix(.498 0 0 -.498 76.955 156.83)" gradientUnits="userSpaceOnUse"><stop offset="0" stop-color="#626262"/><stop offset="1" stop-color="#474747"/></radialGradient><path fill="url(#SVGID_8_)" d="M8.914 64l22.903 38.045 3.32-5.53c.83-1.385.83-3.645 0-5.022l-15.003-24.98C19.304 65.133 17.308 64 15.7 64H8.915z"/></g><g><g fill="#E6E6E5"><path d="M116.07 143.967c0 2.676-.73 4.738-2.192 6.186-1.462 1.45-3.52 2.173-6.166 2.173h-5.147V136.29h5.506c2.556 0 4.528.658 5.917 1.976 1.39 1.316 2.083 3.214 2.083 5.7zm-4.463.153c0-1.47-.29-2.56-.865-3.27-.577-.708-1.453-1.062-2.628-1.062h-1.25v8.98h.956c1.307 0 2.265-.38 2.875-1.145.608-.764.912-1.932.912-3.503zM123.287 152.544c-2.053 0-3.646-.55-4.782-1.65-1.136-1.1-1.704-2.667-1.704-4.7 0-2.1.527-3.71 1.58-4.83 1.052-1.123 2.554-1.684 4.504-1.684 1.857 0 3.293.486 4.306 1.463 1.012.978 1.52 2.383 1.52 4.217v1.91h-7.61c.03.693.28 1.238.758 1.633.476.396 1.12.593 1.94.593.75 0 1.437-.07 2.063-.214.63-.143 1.31-.385 2.042-.73v3.082c-.668.344-1.356.582-2.067.713-.712.132-1.56.197-2.548.197zm-.25-9.948c-.5 0-.92.16-1.256.48-.337.315-.536.815-.593 1.495h3.655c-.014-.6-.184-1.077-.506-1.437-.32-.358-.754-.537-1.3-.537zM133.01 152.324l-4.703-12.428h4.44l2.09 7.35c.01.037.022.1.044.188s.044.19.065.312.04.25.06.384c.02.136.028.263.028.38h.076c0-.382.063-.795.194-1.24l2.188-7.37h4.43l-4.7 12.427h-4.213v-.003zM146.54 152.324h-4.235V136.29h9.404v3.478h-5.17v3.06h4.767v3.478h-4.768v6.018zM158.688 152.544c-2.055 0-3.647-.55-4.783-1.65-1.137-1.1-1.703-2.667-1.703-4.7 0-2.1.525-3.71 1.578-4.83 1.052-1.123 2.554-1.684 4.506-1.684 1.857 0 3.292.486 4.305 1.463 1.013.978 1.52 2.383 1.52 4.217v1.91h-7.607c.028.693.28 1.238.757 1.633.475.396 1.122.593 1.942.593.747 0 1.435-.07 2.063-.214.627-.143 1.307-.385 2.04-.73v3.082c-.668.344-1.356.582-2.067.713-.717.132-1.564.197-2.55.197zm-.25-9.948c-.502 0-.92.16-1.258.48-.338.315-.535.815-.594 1.495h3.657c-.015-.6-.185-1.077-.507-1.437-.322-.358-.756-.537-1.298-.537zM174.7 148.508c0 1.33-.45 2.336-1.35 3.016-.9.68-2.192 1.02-3.876 1.02-.914 0-1.71-.05-2.385-.147-.676-.098-1.364-.278-2.067-.543v-3.433c.66.293 1.384.534 2.17.725.787.19 1.49.285 2.106.285.92 0 1.38-.212 1.38-.636 0-.22-.128-.415-.385-.587-.258-.172-1.007-.507-2.248-1.004-1.132-.47-1.923-1-2.373-1.596-.448-.597-.675-1.352-.675-2.266 0-1.153.44-2.054 1.327-2.696.885-.645 2.137-.965 3.755-.965.813 0 1.576.087 2.29.268.716.18 1.458.44 2.23.784l-1.155 2.764c-.565-.256-1.164-.475-1.797-.652-.63-.18-1.146-.27-1.545-.27-.696 0-1.045.173-1.045.517 0 .213.12.395.364.543.243.15.945.456 2.106.916.863.357 1.507.71 1.932 1.052.426.345.736.748.936 1.213.202.462.3 1.027.3 1.693zM181.764 149.154c.573 0 1.26-.144 2.06-.428v3.125c-.574.25-1.12.427-1.64.533-.52.105-1.127.16-1.822.16-1.43 0-2.46-.355-3.092-1.06-.63-.707-.946-1.79-.946-3.252v-5.122h-1.49v-1.743l1.894-1.35 1.1-2.61h2.785v2.49h3.025v3.213h-3.025v4.838c-.004.807.382 1.208 1.15 1.208z"/></g><g fill="#E6E6E5"><path d="M55.73 143.312h6.92v8.645c-1.878.645-3.944.966-6.197.966-2.472 0-4.382-.717-5.73-2.15-1.35-1.433-2.025-3.478-2.025-6.132 0-2.588.74-4.603 2.216-6.042 1.477-1.44 3.547-2.162 6.208-2.162 1.01 0 1.962.097 2.858.285.896.19 1.676.433 2.342.727l-1.37 3.4c-1.157-.57-2.425-.855-3.808-.855-1.265 0-2.243.41-2.934 1.233s-1.037 1.998-1.037 3.525c0 1.5.313 2.643.938 3.43.626.785 1.527 1.178 2.705 1.178.644 0 1.236-.062 1.777-.187v-2.51H55.73v-3.348zM78.185 144.345c0 2.677-.737 4.738-2.21 6.188-1.473 1.448-3.545 2.172-6.214 2.172h-5.187v-16.037h5.55c2.575 0 4.562.658 5.962 1.976 1.4 1.315 2.1 3.213 2.1 5.7zm-4.497.153c0-1.47-.29-2.56-.872-3.27s-1.464-1.063-2.65-1.063h-1.26v8.983h.964c1.316 0 2.282-.383 2.896-1.146.614-.764.922-1.932.922-3.504zM86.15 143.312h6.922v8.645c-1.88.645-3.945.966-6.198.966-2.472 0-4.382-.717-5.73-2.15-1.35-1.433-2.025-3.478-2.025-6.132 0-2.588.738-4.603 2.215-6.042 1.477-1.44 3.547-2.162 6.208-2.162 1.01 0 1.962.097 2.858.285.897.19 1.677.433 2.343.727l-1.37 3.4c-1.157-.57-2.425-.855-3.808-.855-1.265 0-2.243.41-2.934 1.233s-1.036 1.998-1.036 3.525c0 1.5.313 2.643.938 3.43.625.785 1.526 1.178 2.704 1.178.644 0 1.236-.062 1.777-.187v-2.51H86.15v-3.348z"/></g><radialGradient id="SVGID_9_" cx="-118.822" cy="-38.158" r="20.113" gradientTransform="matrix(.498 0 0 -.498 76.955 156.83)" gradientUnits="userSpaceOnUse"><stop offset="0" stop-color="#FFCF4F"/><stop offset="1" stop-color="#F4C236"/></radialGradient><path fill="url(#SVGID_9_)" d="M9.068 187h6.79c1.608 0 3.605-1.128 4.433-2.51l5.72-9.52c.678-1.397.654-3.427-.118-4.714l-3.378-5.592L9.068 187z"/><radialGradient id="SVGID_10_" cx="-130.873" cy="-27.944" r="27.656" gradientTransform="matrix(.498 0 0 -.498 76.955 156.83)" gradientUnits="userSpaceOnUse"><stop offset="0" stop-color="#08A960"/><stop offset="1" stop-color="#07914B"/></radialGradient><path fill="url(#SVGID_10_)" d="M16.368 159.514l-15.102 25.25C.683 186.01 1.29 187 2.786 187H9.07l13.446-22.335-6.146-10.173c.83 1.378.83 3.638 0 5.022"/><radialGradient id="SVGID_11_" cx="-121.423" cy="11.737" r="40.538" gradientTransform="matrix(.498 0 0 -.498 76.955 156.83)" gradientUnits="userSpaceOnUse"><stop offset="0" stop-color="#567FC0"/><stop offset="1" stop-color="#557FC0"/></radialGradient><path fill="url(#SVGID_11_)" d="M2.787 127c-1.613 0-2.254 1.133-1.424 2.51l24.53 40.746c.77 1.288.794 3.317.118 4.713l5.964-9.926L9.072 127H2.787z"/><radialGradient id="SVGID_12_" cx="-109.358" cy="21.701" r="33.057" gradientTransform="matrix(.498 0 0 -.498 76.955 156.83)" gradientUnits="userSpaceOnUse"><stop offset="0" stop-color="#E14C40"/><stop offset="1" stop-color="#CD392D"/></radialGradient><path fill="url(#SVGID_12_)" d="M9.072 127l22.903 38.045 3.32-5.53c.83-1.385.83-3.645 0-5.022l-15.003-24.98c-.83-1.38-2.825-2.513-4.432-2.513H9.072z"/></g><text transform="translate(48.65 49.413)" fill="#4E4E4E" font-family="'MyriadPro-Semibold'" font-size="22">2015 Ankara</text><text transform="translate(49.333 110.387)" fill="#4E4E4E" font-family="'MyriadPro-Semibold'" font-size="22">2015 Ankara</text><text transform="translate(49.355 173.57)" opacity=".2" fill="#4E4E4E" font-family="'MyriadPro-Semibold'" font-size="22">2015 Ankara</text></svg>